<svg width="25" height="25" viewBox="0 0 22 23" fill="none" xmlns="http://www.w3.org/2000/svg">
<path d="M21.4891 10.7805C21.4891 4.98142 16.7888 0.280487 10.9909 0.280487C5.19276 0.280487 0.492462 4.98142 0.492462 10.7805C0.492462 16.5796 5.19276 21.2805 10.9909 21.2805C16.7888 21.2805 21.4891 16.5796 21.4891 10.7805Z" fill="#407FFF"/>
<path d="M16.6145 1.91293C18.5159 3.81327 19.6921 6.43939 19.6921 9.34013C19.6921 15.1392 14.9918 19.8401 9.1937 19.8401C7.12465 19.8401 5.19579 19.2412 3.57007 18.2077C5.4696 20.1062 8.09316 21.2805 10.9909 21.2805C16.7888 21.2805 21.4891 16.5795 21.4891 10.7805C21.4891 7.05078 19.5447 3.77562 16.6145 1.91293Z" fill="#406AEF"/>
<path d="M15.8075 10.4171C15.8075 9.84529 15.3441 9.38194 14.7725 9.38194H13.3054C13.7291 8.32162 13.76 7.45229 13.7573 7.17383C13.757 7.14323 13.7639 7.03476 13.7639 7.01073V6.9625C13.7331 5.95554 13.4249 5.64728 13.029 5.50052C12.623 5.50052 12.2939 5.82944 12.2939 6.23544V6.30898C12.2899 6.56068 11.9363 7.07994 11.9363 7.07994L9.2392 9.80812L9.1937 9.86404L8.37338 12.0577L9.1937 15.4591C9.1937 15.5623 9.27733 15.6458 9.38035 15.6458H14.4581C14.8035 15.6458 15.0972 15.3939 15.1495 15.0524C15.3491 13.7466 15.8075 10.7166 15.8075 10.4171Z" fill="#E3FAFF"/>
<path d="M8.60796 16.0606H6.75986C6.43638 16.0606 6.1741 15.7983 6.1741 15.4747V9.92606C6.1741 9.60242 6.43638 9.3403 6.75986 9.3403H8.60796C8.93144 9.3403 9.19372 9.60242 9.19372 9.92606V15.4747C9.19372 15.7983 8.93144 16.0606 8.60796 16.0606Z" fill="#48D8FF"/>
<path d="M8.60796 14.9569H6.75986C6.43638 14.9569 6.1741 14.6946 6.1741 14.3709V15.4747C6.1741 15.7983 6.43638 16.0606 6.75986 16.0606H8.60796C8.93144 16.0606 9.19372 15.7983 9.19372 15.4747V14.3709C9.19372 14.6946 8.93144 14.9569 8.60796 14.9569Z" fill="#43C5FF"/>
<path d="M14.7725 9.38193H14.5826C14.573 9.47293 14.5584 9.59213 14.5401 9.73344C14.1925 12.4217 11.9039 14.4347 9.1937 14.4347V15.459C9.1937 15.5621 9.27733 15.6458 9.38035 15.6458H14.4581C14.8035 15.6458 15.0972 15.3938 15.1495 15.0523C15.3491 13.7466 15.8075 10.7165 15.8075 10.4169C15.8075 9.84528 15.3441 9.38193 14.7725 9.38193Z" fill="#CCF4FF"/>
</svg>
