<svg width="19" height="19" viewBox="0 0 19 19" fill="none" xmlns="http://www.w3.org/2000/svg">
<path d="M18.4028 18.206H16.2369C16.2369 15.1291 13.1721 12.6267 9.40228 12.6267C5.63247 12.6267 2.56875 15.13 2.56875 18.206H0.402817C0.402817 14.1223 4.4412 10.8028 9.40336 10.8028C14.3644 10.8028 18.4028 14.1223 18.4028 18.206Z" fill="#010002"/>
<path d="M9.40337 10.21C6.12956 10.21 3.46438 7.96477 3.46438 5.20796C3.4633 2.45023 6.12848 0.205933 9.40337 0.205933C12.6793 0.205933 15.3445 2.44932 15.3445 5.20796C15.3445 7.9666 12.6793 10.21 9.40337 10.21ZM9.40337 2.02983C7.32191 2.02983 5.62923 3.4552 5.62923 5.20796C5.62923 6.96072 7.32191 8.38609 9.40337 8.38609C11.4859 8.38609 13.1786 6.96072 13.1786 5.20796C13.1786 3.4552 11.4838 2.02983 9.40337 2.02983Z" fill="#010002"/>
</svg>
