<svg width="20" height="20" viewBox="0 0 17 17" fill="black" xmlns="http://www.w3.org/2000/svg">
<path d="M16.0633 15.1393L11.9323 11.0744C13.0141 9.89907 13.6788 8.34472 13.6788 6.63431C13.6782 2.97544 10.6645 0.00976562 6.94666 0.00976562C3.22879 0.00976562 0.215088 2.97544 0.215088 6.63431C0.215088 10.2932 3.22879 13.2589 6.94666 13.2589C8.55304 13.2589 10.0264 12.7032 11.1837 11.7795L15.3306 15.8605C15.5327 16.0595 15.8607 16.0595 16.0628 15.8605C16.2653 15.6614 16.2653 15.3384 16.0633 15.1393ZM6.94666 12.2396C3.80094 12.2396 1.25084 9.73005 1.25084 6.63431C1.25084 3.53857 3.80094 1.02899 6.94666 1.02899C10.0924 1.02899 12.6425 3.53857 12.6425 6.63431C12.6425 9.73005 10.0924 12.2396 6.94666 12.2396Z" fill="white"/>
</svg>
