<svg width="26" height="26" viewBox="0 0 26 26" fill="none" xmlns="http://www.w3.org/2000/svg">
<g clip-path="url(#clip0)">
<path d="M22.4269 0.507385H3.67694C1.9535 0.507385 0.551941 1.90895 0.551941 3.63239V22.3824C0.551941 24.1058 1.9535 25.5074 3.67694 25.5074H22.4269C24.1504 25.5074 25.5519 24.1058 25.5519 22.3824V3.63239C25.5519 1.90895 24.1504 0.507385 22.4269 0.507385Z" fill="#1976D2"/>
<path d="M21.6457 13.0074H17.7394V9.88239C17.7394 9.01989 18.4394 9.10114 19.3019 9.10114H20.8644V5.19489H17.7394C15.1504 5.19489 13.0519 7.29332 13.0519 9.88239V13.0074H9.92694V16.9136H13.0519V25.5074H17.7394V16.9136H20.0832L21.6457 13.0074Z" fill="#FAFAFA"/>
</g>
<defs>
<clipPath id="clip0">
<rect width="25" height="25" fill="white" transform="translate(0.551941 0.507385)"/>
</clipPath>
</defs>
</svg>
