<svg width="26" height="26" viewBox="0 0 26 26" fill="none" xmlns="http://www.w3.org/2000/svg">
<g clip-path="url(#clip0)">
<path d="M9.74998 20.6083C9.57617 20.6407 9.50023 20.7223 9.52201 20.8524C9.54367 20.9825 9.64133 21.026 9.81491 20.9825C9.98873 20.9392 10.0646 20.8631 10.0428 20.7547C10.0212 20.6354 9.92357 20.5865 9.74998 20.6083Z" fill="black"/>
<path d="M8.82221 20.7386C8.64856 20.7386 8.5618 20.798 8.5618 20.9176C8.5618 21.0586 8.65409 21.1181 8.83846 21.0965C9.0121 21.0965 9.09898 21.0368 9.09898 20.9176C9.09898 20.7767 9.00669 20.7168 8.82221 20.7386Z" fill="black"/>
<path d="M7.55271 20.6894C7.50938 20.8089 7.57995 20.89 7.76426 20.9337C7.92701 20.9985 8.03014 20.966 8.07346 20.8359C8.10607 20.7167 8.0355 20.6301 7.86191 20.5755C7.6991 20.5323 7.59609 20.5697 7.55271 20.6894Z" fill="black"/>
<path d="M24.3575 1.88258C23.4406 0.965842 22.3368 0.507385 21.0453 0.507385H5.42038C4.12927 0.507385 3.02508 0.965842 2.10811 1.88258C1.19137 2.7995 0.73291 3.90368 0.73291 5.19485V20.82C0.73291 22.1112 1.19137 23.2153 2.10811 24.132C3.02503 25.049 4.12927 25.5074 5.42038 25.5074H9.06621C9.30473 25.5074 9.4839 25.4992 9.60322 25.4832C9.72248 25.4668 9.84174 25.3962 9.96117 25.2713C10.0807 25.1467 10.1402 24.9649 10.1402 24.7262C10.1402 24.6939 10.1373 24.3246 10.132 23.6193C10.1264 22.9138 10.1238 22.3551 10.1238 21.9427L9.74939 22.0079C9.5107 22.0512 9.20958 22.0703 8.84604 22.0648C8.48267 22.0594 8.10551 22.0215 7.71495 21.9509C7.32416 21.8803 6.96079 21.7176 6.62439 21.4628C6.28816 21.2076 6.04946 20.874 5.90837 20.4618L5.74555 20.0872C5.63707 19.8379 5.46627 19.5611 5.23294 19.2575C4.99961 18.9536 4.76365 18.7474 4.52496 18.6389L4.411 18.5575C4.33512 18.5033 4.2646 18.4379 4.19944 18.362C4.1344 18.2859 4.0856 18.2098 4.05305 18.1341C4.0205 18.058 4.04752 17.9956 4.1344 17.9466C4.22128 17.8979 4.37845 17.8737 4.60642 17.8737L4.93182 17.9225C5.14891 17.9658 5.4173 18.0959 5.73757 18.313C6.05762 18.53 6.32071 18.8121 6.5269 19.1592C6.7766 19.6042 7.07743 19.9431 7.43025 20.1764C7.78279 20.4099 8.13823 20.5266 8.49624 20.5266C8.85425 20.5266 9.16346 20.4994 9.42399 20.4454C9.68423 20.391 9.92839 20.3094 10.1564 20.201C10.254 19.4741 10.5199 18.9149 10.9538 18.5244C10.3354 18.4592 9.77932 18.3617 9.28546 18.2313C8.79188 18.101 8.28183 17.8896 7.75565 17.5965C7.22924 17.3035 6.79256 16.9402 6.44533 16.5059C6.09815 16.0717 5.81322 15.502 5.59095 14.797C5.36856 14.0915 5.25734 13.2776 5.25734 12.3554C5.25734 11.0425 5.68609 9.92473 6.54327 9.00252C6.1417 8.01514 6.17961 6.90851 6.65711 5.68227C6.97179 5.58456 7.43846 5.65787 8.05688 5.90203C8.67542 6.14637 9.12829 6.3553 9.41595 6.52866C9.70361 6.70208 9.93409 6.8487 10.1077 6.96819C11.1171 6.68606 12.1587 6.54502 13.2328 6.54502C14.3069 6.54502 15.3486 6.68606 16.358 6.96819L16.9765 6.57758C17.3998 6.31705 17.8989 6.07836 18.474 5.86144C19.0491 5.64447 19.4885 5.58473 19.7925 5.68244C20.2806 6.90868 20.3242 8.01531 19.9224 9.00263C20.7796 9.92496 21.2084 11.0427 21.2084 12.3555C21.2084 13.2779 21.0972 14.0946 20.8748 14.8051C20.6526 15.5158 20.3652 16.0857 20.0123 16.5143C19.6597 16.9429 19.2202 17.3034 18.694 17.5966C18.1677 17.8895 17.6577 18.1013 17.1639 18.2312C16.6702 18.3615 16.1142 18.4595 15.4957 18.5246C16.0596 19.0127 16.3417 19.7829 16.3417 20.8356V24.7257C16.3417 24.9103 16.3686 25.0593 16.4228 25.1733C16.4775 25.2872 16.5641 25.3656 16.6834 25.4094C16.8033 25.4527 16.9085 25.4798 17.001 25.4905C17.0935 25.5014 17.2261 25.5069 17.3998 25.5069H21.0456C22.3367 25.5069 23.441 25.0484 24.3575 24.1315C25.2744 23.2146 25.7329 22.1104 25.7329 20.8193V5.19485C25.7327 3.90368 25.2743 2.79933 24.3575 1.88258Z" fill="black"/>
<path d="M5.6808 18.704C5.60492 18.7581 5.61576 18.8449 5.71341 18.9643C5.82207 19.0727 5.90877 19.089 5.97393 19.013C6.04981 18.959 6.03898 18.8721 5.94115 18.7525C5.83273 18.655 5.74596 18.6387 5.6808 18.704Z" fill="black"/>
<path d="M5.14381 18.2971C5.11131 18.3732 5.14928 18.4383 5.25777 18.4924C5.34447 18.5468 5.41522 18.5361 5.46932 18.46C5.50182 18.3839 5.46385 18.3187 5.35536 18.2643C5.24688 18.2317 5.17636 18.2426 5.14381 18.2971Z" fill="black"/>
<path d="M6.18551 19.3388C6.08774 19.3929 6.08774 19.4908 6.18551 19.6317C6.28316 19.773 6.37523 19.8108 6.46217 19.7456C6.55988 19.6695 6.55988 19.5665 6.46217 19.4362C6.37546 19.2955 6.28316 19.2626 6.18551 19.3388Z" fill="black"/>
<path d="M6.75529 20.071C6.65758 20.158 6.67913 20.2607 6.82039 20.3804C6.95043 20.5104 7.05897 20.5267 7.14579 20.4288C7.23267 20.3423 7.21095 20.2392 7.08069 20.1199C6.95066 19.9899 6.84211 19.9735 6.75529 20.071Z" fill="black"/>
</g>
<defs>
<clipPath id="clip0">
<rect width="25" height="25" fill="white" transform="translate(0.73291 0.507385)"/>
</clipPath>
</defs>
</svg>
