<svg width="26" height="26" viewBox="0 0 26 26" fill="none" xmlns="http://www.w3.org/2000/svg">
<g clip-path="url(#clip0)">
<path d="M4.74591 25.5074L20.9959 25.5074C23.4122 25.5074 25.3709 23.5486 25.3709 21.1324L25.3709 4.88239C25.3709 2.46614 23.4122 0.507385 20.9959 0.507385L4.74591 0.507385C2.32966 0.507385 0.370911 2.46614 0.370911 4.88239L0.370911 21.1324C0.370911 23.5486 2.32966 25.5074 4.74591 25.5074Z" fill="url(#paint0_radial)"/>
<path d="M17.5584 22.3824H8.18341C6.94021 22.3824 5.74792 21.8885 4.86885 21.0094C3.98977 20.1304 3.49591 18.9381 3.49591 17.6949V8.31989C3.49591 7.07668 3.98977 5.8844 4.86885 5.00532C5.74792 4.12625 6.94021 3.63239 8.18341 3.63239H17.5584C18.8016 3.63239 19.9939 4.12625 20.873 5.00532C21.7521 5.8844 22.2459 7.07668 22.2459 8.31989V17.6949C22.2459 18.9381 21.7521 20.1304 20.873 21.0094C19.9939 21.8885 18.8016 22.3824 17.5584 22.3824ZM8.18341 5.50739C7.43781 5.50842 6.72304 5.80507 6.19581 6.33229C5.66859 6.85951 5.37194 7.57428 5.37091 8.31989V17.6949C5.37194 18.4405 5.66859 19.1553 6.19581 19.6825C6.72304 20.2097 7.43781 20.5064 8.18341 20.5074H17.5584C18.304 20.5064 19.0188 20.2097 19.546 19.6825C20.0732 19.1553 20.3699 18.4405 20.3709 17.6949V8.31989C20.3699 7.57428 20.0732 6.85951 19.546 6.33229C19.0188 5.80507 18.304 5.50842 17.5584 5.50739H8.18341Z" fill="white"/>
<path d="M12.8709 18.3199C11.8202 18.3199 10.7931 18.0083 9.91942 17.4246C9.04578 16.8408 8.36486 16.0111 7.96277 15.0404C7.56068 14.0697 7.45548 13.0015 7.66046 11.971C7.86544 10.9404 8.37141 9.99385 9.11438 9.25088C9.85734 8.50792 10.8039 8.00195 11.8345 7.79697C12.865 7.59198 13.9332 7.69719 14.9039 8.09928C15.8746 8.50137 16.7043 9.18228 17.2881 10.0559C17.8718 10.9296 18.1834 11.9567 18.1834 13.0074C18.1823 14.416 17.6223 15.7667 16.6262 16.7627C15.6302 17.7588 14.2795 18.3189 12.8709 18.3199ZM12.8709 9.56989C12.191 9.56989 11.5264 9.77149 10.9611 10.1492C10.3958 10.5269 9.95522 11.0638 9.69505 11.6919C9.43487 12.32 9.3668 13.0112 9.49943 13.678C9.63207 14.3448 9.95946 14.9573 10.4402 15.4381C10.9209 15.9188 11.5334 16.2462 12.2003 16.3788C12.8671 16.5115 13.5582 16.4434 14.1864 16.1832C14.8145 15.923 15.3513 15.4825 15.7291 14.9172C16.1068 14.3519 16.3084 13.6873 16.3084 13.0074C16.3073 12.096 15.9449 11.2223 15.3004 10.5779C14.656 9.93342 13.7822 9.57092 12.8709 9.56989Z" fill="white"/>
<path d="M18.1834 8.94489C18.7012 8.94489 19.1209 8.52515 19.1209 8.00739C19.1209 7.48962 18.7012 7.06989 18.1834 7.06989C17.6657 7.06989 17.2459 7.48962 17.2459 8.00739C17.2459 8.52515 17.6657 8.94489 18.1834 8.94489Z" fill="white"/>
</g>
<defs>
<radialGradient id="paint0_radial" cx="0" cy="0" r="1" gradientUnits="userSpaceOnUse" gradientTransform="translate(-0.132018 24.9996) rotate(180) scale(57.7324)">
<stop stop-color="#F9ED32"/>
<stop offset="0.36" stop-color="#EE2A7B"/>
<stop offset="0.44" stop-color="#D22A8A"/>
<stop offset="0.6" stop-color="#8B2AB2"/>
<stop offset="0.83" stop-color="#1B2AF0"/>
<stop offset="0.88" stop-color="#002AFF"/>
</radialGradient>
<clipPath id="clip0">
<rect width="25" height="25" fill="white" transform="translate(0.370911 0.507385)"/>
</clipPath>
</defs>
</svg>
