<svg width="26" height="26" viewBox="0 0 26 26" fill="none" xmlns="http://www.w3.org/2000/svg">
<g clip-path="url(#clip0)">
<path d="M22.1829 25.5074H3.43292C1.70792 25.5074 0.307922 24.1074 0.307922 22.3824V3.63239C0.307922 1.90739 1.70792 0.507385 3.43292 0.507385H22.1829C23.9079 0.507385 25.3079 1.90739 25.3079 3.63239V22.3824C25.3079 24.1074 23.9079 25.5074 22.1829 25.5074Z" fill="#1DA1F2"/>
<path d="M9.90778 19.3574C15.8015 19.3574 19.0265 14.4699 19.0265 10.2387C19.0265 10.1012 19.0265 9.96366 19.0203 9.82616C19.6453 9.37616 20.189 8.80741 20.6203 8.16366C20.0453 8.41991 19.4265 8.58866 18.7765 8.66991C19.439 8.27616 19.9453 7.64491 20.189 6.89491C19.5703 7.26366 18.8828 7.52616 18.1515 7.66991C17.564 7.04491 16.7328 6.65741 15.814 6.65741C14.0453 6.65741 12.6078 8.09491 12.6078 9.86366C12.6078 10.1137 12.639 10.3574 12.689 10.5949C10.0265 10.4637 7.66403 9.18241 6.08278 7.24491C5.80778 7.71991 5.65153 8.26991 5.65153 8.85741C5.65153 9.96991 6.22028 10.9512 7.07653 11.5262C6.55153 11.5074 6.05778 11.3637 5.62653 11.1262V11.1699C5.62653 12.7199 6.73278 14.0199 8.19528 14.3137C7.92653 14.3887 7.64528 14.4262 7.35153 14.4262C7.14528 14.4262 6.94528 14.4074 6.75153 14.3699C7.15778 15.6449 8.34528 16.5699 9.74528 16.5949C8.64528 17.4574 7.26403 17.9699 5.76403 17.9699C5.50778 17.9699 5.25153 17.9574 5.00153 17.9262C6.41403 18.8262 8.10153 19.3574 9.90778 19.3574Z" fill="white"/>
</g>
<defs>
<clipPath id="clip0">
<rect width="25" height="25" fill="white" transform="translate(0.307922 0.507385)"/>
</clipPath>
</defs>
</svg>
