<svg width="19" height="19" viewBox="0 0 19 19" fill="none" xmlns="http://www.w3.org/2000/svg">
<path d="M18.411 3.21434L16.2044 1.00983C15.7142 0.520111 14.917 0.520463 14.4271 1.01054L2.62966 12.8141C2.26102 13.1824 1.97948 13.6385 1.81555 14.133L1.80504 14.1647L0.779358 18.6428L5.26124 17.619L5.29288 17.6085C5.78774 17.4448 6.24414 17.1637 6.61321 16.7951L18.4118 4.9904C18.649 4.75308 18.7795 4.43764 18.7794 4.10219C18.7792 3.76682 18.6484 3.45148 18.411 3.21434ZM2.64995 16.7732L3.06887 14.9441L4.48102 16.3549L2.64995 16.7732ZM5.76728 15.6526L3.77245 13.6597L13.5241 3.90291L15.519 5.89583L5.76728 15.6526ZM16.5129 4.90141L14.518 2.90849L15.3162 2.10994L17.3111 4.10286L16.5129 4.90141Z" fill="black"/>
</svg>
