<svg width="19" height="19" viewBox="0 0 19 19" fill="none" xmlns="http://www.w3.org/2000/svg">
<path d="M5.98537 14.3315C6.56814 13.9723 6.92677 13.3736 6.92677 12.6951C6.92677 11.5776 5.89572 10.6597 4.64053 10.6597C3.38533 10.6597 2.35428 11.5776 2.35428 12.6951C2.35428 13.3736 2.71291 13.9723 3.29568 14.3315C1.63703 14.8504 0.426664 16.2473 0.426664 17.8836C0.337008 18.0433 0.516321 18.2029 0.695634 18.2029H8.49576C8.67507 18.2029 8.85439 18.0832 8.85439 17.8836C8.85439 16.2073 7.64402 14.8104 5.98537 14.3315ZM2.93705 12.6951C2.93705 11.8969 3.6543 11.2583 4.55087 11.2583C5.44744 11.2583 6.16469 11.8969 6.16469 12.6951C6.16469 13.4934 5.44744 14.132 4.55087 14.132C3.6543 14.132 2.93705 13.4934 2.93705 12.6951ZM1.05426 17.6042C1.23357 16.0078 2.75774 14.7306 4.5957 14.7306C6.43366 14.7306 7.95782 16.0078 8.13713 17.6042H1.05426Z" fill="black"/>
<path d="M15.5338 14.3315C16.1166 13.9723 16.4752 13.3737 16.4752 12.6952C16.4752 11.5777 15.4441 10.6597 14.189 10.6597C12.8441 10.6198 11.8131 11.5377 11.8131 12.6952C11.8131 13.3737 12.1717 13.9723 12.7544 14.3315C11.0958 14.8504 9.88544 16.2473 9.88544 17.8836C9.88544 18.0433 10.0199 18.2029 10.2441 18.2029H18.0442C18.2235 18.2029 18.4028 18.0832 18.4028 17.8836C18.4028 16.2074 17.1925 14.8105 15.5338 14.3315ZM12.4855 12.6553C12.4855 11.897 13.2027 11.2185 14.0993 11.2185C14.9959 11.2185 15.7131 11.857 15.7131 12.6553C15.7131 13.4535 14.9959 14.0921 14.0993 14.0921C13.2027 14.0921 12.4855 13.4535 12.4855 12.6553ZM10.5579 17.6043C10.7372 16.0078 12.2613 14.7307 14.0993 14.7307C15.9373 14.7307 17.4614 16.0078 17.6407 17.6043H10.5579Z" fill="black"/>
<path d="M10.7372 3.87472C11.3199 3.51552 11.6786 2.91685 11.6786 2.23836C11.6786 1.12084 10.6475 0.202881 9.39232 0.202881C8.13713 0.202881 7.10607 1.12084 7.10607 2.23836C7.10607 2.91685 7.4647 3.51552 8.04747 3.87472C6.38882 4.39357 5.17846 5.79047 5.17846 7.42683C5.13363 7.58647 5.26811 7.74612 5.44743 7.74612H13.2476C13.4269 7.74612 13.6062 7.62639 13.6062 7.42683C13.6062 5.75055 12.3958 4.35366 10.7372 3.87472ZM7.73367 2.23836C7.73367 1.44013 8.45092 0.801551 9.34749 0.801551C10.2441 0.801551 10.9613 1.44013 10.9613 2.23836C10.9613 3.03658 10.2441 3.67517 9.34749 3.67517C8.45092 3.67517 7.73367 3.03658 7.73367 2.23836ZM5.80605 7.14745C5.98537 5.51109 7.50953 4.27383 9.34749 4.27383C11.1855 4.27383 12.7096 5.551 12.8889 7.14745H5.80605Z" fill="black"/>
</svg>
