<svg width="49" height="49" viewBox="0 0 49 49" fill="none" xmlns="http://www.w3.org/2000/svg">
<path d="M25.6836 48.8644C19.9794 48.8644 14.7641 46.7217 10.7318 43.1774L0.808134 44.5709L4.64195 34.8441C3.3062 31.8144 2.55695 28.4509 2.55695 24.9034C2.55695 11.6709 12.9111 0.942261 25.6836 0.942261C38.4549 0.942261 48.8081 11.6709 48.8081 24.9034C48.8081 38.1383 38.4553 48.8644 25.6836 48.8644ZM38.3109 24.8348V24.7681C38.3109 17.8539 33.5676 12.9235 25.389 12.9235H16.5555V36.8847H25.2581C33.5003 36.8849 38.3109 31.7487 38.3109 24.8348ZM25.4863 30.9976H22.9026V18.8124H25.4863C29.2811 18.8124 31.7998 21.0363 31.7998 24.8718V24.9385C31.7998 28.8063 29.2811 30.9976 25.4863 30.9976Z" fill="#2E9FFF"/>
</svg>
