<svg width="26" height="26" viewBox="0 0 26 26" fill="none" xmlns="http://www.w3.org/2000/svg">
<g clip-path="url(#clip0)">
<path d="M20.7519 0.507385H4.50189C2.08565 0.507385 0.126892 2.46614 0.126892 4.88239V21.1324C0.126892 23.5486 2.08565 25.5074 4.50189 25.5074H20.7519C23.1681 25.5074 25.1269 23.5486 25.1269 21.1324V4.88239C25.1269 2.46614 23.1681 0.507385 20.7519 0.507385Z" fill="#4489C8"/>
<path d="M3.88472 8.23005H6.88472C6.94744 8.22995 7.0087 8.24896 7.06034 8.28455C7.11198 8.32014 7.15155 8.37062 7.17378 8.42927C7.50581 9.28474 8.88472 12.6324 10.1464 12.9058C11.0839 12.9058 10.7519 8.4527 9.5605 8.4527C9.248 8.4527 10.1152 7.89802 10.1738 7.87458C11.281 7.5711 12.4494 7.5711 13.5566 7.87458C14.1543 8.12458 14.2558 8.8238 14.2714 9.41755C14.2871 10.0113 13.6074 12.5425 14.5019 12.816C15.6738 13.1754 17.1816 9.49958 17.5332 8.59724C17.556 8.53932 17.5959 8.48967 17.6474 8.45481C17.699 8.41996 17.76 8.40152 17.8222 8.40192H21.1621C21.2137 8.40176 21.2645 8.41439 21.3101 8.43867C21.3556 8.46295 21.3944 8.49813 21.4231 8.54108C21.4517 8.58402 21.4692 8.63339 21.4741 8.68477C21.479 8.73615 21.4711 8.78794 21.4511 8.83552C20.7632 10.4049 19.9384 11.9108 18.9863 13.3355C18.9053 13.4531 18.8674 13.595 18.8787 13.7372C18.8901 13.8795 18.9502 14.0136 19.0488 14.1168C20.0488 15.1871 22.7832 18.2183 21.2207 18.2183H17.8496C17.7624 18.2185 17.6763 18.2002 17.5968 18.1645C17.5173 18.1288 17.4463 18.0766 17.3886 18.0113C16.8652 17.4332 15.3418 15.8238 14.6543 15.9527C14.0839 16.0582 14.0293 17.0269 14.0566 17.6597C14.0652 17.823 14.0095 17.9831 13.9014 18.1058C13.7934 18.2285 13.6415 18.304 13.4785 18.316C12.8808 18.3511 12.0644 18.3668 11.9902 18.3629C9.60738 18.2105 8.19722 16.6207 6.84956 14.8472C5.4379 12.9671 4.3367 10.8728 3.58784 8.64411C3.57254 8.59695 3.56853 8.54686 3.57614 8.49787C3.58375 8.44887 3.60276 8.40236 3.63165 8.36206C3.66054 8.32177 3.6985 8.28883 3.74245 8.2659C3.78641 8.24297 3.83514 8.23069 3.88472 8.23005Z" fill="white"/>
</g>
<defs>
<clipPath id="clip0">
<rect width="25" height="25" fill="white" transform="translate(0.126892 0.507385)"/>
</clipPath>
</defs>
</svg>
